<svg xmlns="http://www.w3.org/2000/svg" width="2834.65" height="2834.65"><path fill="#62B794" d="M880.151 1534.525c-57.612-175.362 87.206-336.979 259.478-391.795-112.964-104.146-41.324-327.025 131.145-306.527 163.455 14.744 190.306 239.331 57.896 323.38 143.714 31.923 199.613 112.219 218.31 133.357-176.564 118.521-167.094 322.825-166.424 357.402 20.666-83.094 108.401-297.06 309.635-335.417-133.558-123.098-43.005-286.828 92.266-283.926 135.273 2.897 206.791 208.339 55.618 291.125 17.307 1.661 51.259 7.877 88.926 26.21-49.589 18.142-91.099 59.322-79 78.667 12.095 19.362 104.142-31.865 107.156-27.024 3.028 4.85-106.889 55.3-87.535 77.068 19.344 21.766 115.959-35.944 117.776-31.108 1.813 4.836-101.757 56.905-81.611 81.186s114.266-40.662 117.891-38.248c3.629 2.413-80.598 49.238-67.678 69.794s86.667-8 113.146-28.675c-25.914 94.344-107.135 164.139-239.863 247.029-132.728 82.9-364.699 111.66-487.349 74.605-122.652-37.047-402.171-141.741-459.783-317.103z"/><path fill="#EF9D9C" d="M609.192 1250.017c-34.483-613.867 782.165-703.514 954.66-356.723 86.088-527.31-948.787-726.097-1238.655-89.032-254.291 487.43 129.852 1004.96 455.585 1146.865 325.731 141.904 661.146 283.799 793.37 528.214-22.905-687.142-930.485-615.437-964.96-1229.324z"/><path fill="#FCD2CA" d="M2312.387 1352.942c68.098-359.985-340.152-605.918-737.409-356.705 148.562-415.449 1071.954-272.932 1049.16 294.913-22.804 567.845-685.563 479.705-995.606 959.229 131.075-508.622 615.765-537.436 683.855-897.437z"/></svg>